<?xml version="1.0" encoding="UTF-8"?>
<!DOCTYPE svg  PUBLIC '-//W3C//DTD SVG 1.1//EN'  'http://www.w3.org/Graphics/SVG/1.1/DTD/svg11.dtd'>
<svg width="117.55mm" height="150mm" clip-rule="evenodd" fill-rule="evenodd" image-rendering="optimizeQuality" shape-rendering="geometricPrecision" text-rendering="geometricPrecision" viewBox="0 0 117.553 150" xml:space="preserve" xmlns="http://www.w3.org/2000/svg">
 <defs>
  <style type="text/css">
   <![CDATA[
    .fil6 {fill:#EF9BA0}
    .fil5 {fill:#F7C5B4}
    .fil4 {fill:white}
    .fil1 {fill:#472F20}
    .fil2 {fill:#EFE9BE}
    .fil7 {fill:#FDEEC4}
    .fil0 {fill:#FFF7C7}
    .fil3 {fill:#472F20;fill-rule:nonzero}
   ]]>
  </style>
 </defs>
   <path class="fil0" d="m72.901 17.087c2.2712 1.25 3.3182 1.9409 3.9138-0.3014 1.5954 2.6444 0.3641 2.6559 3.4772 4.3695l-0.0152 0.0225c-0.3824 0.5776-0.224 1.3562 0.3536 1.7386 3.8135 2.533 5.9387 4.3724 8.874 7.4523 2.816 2.9552 5.2106 6.1774 7.1457 9.6906-1.1097 1.0725-2.4169 2.5593-3.5738 4.6209-2.6903 4.7944-4.7337 11.872-6.5407 18.13-0.3883 1.3452-0.7654 2.6504-1.234 4.2052-2.3848 7.9121-3.7411 17.02-3.4067 25.25 0.1085 2.6729 0.3969 5.2568 0.8861 7.6845-3.5578 3.7768-7.6113 6.3406-12.261 7.8887-3.3245 1.1069-6.9667 1.6999-10.961 1.8519-0.2873-0.1025-0.6118-0.1007-0.9121 0.0273-1.6008 0.0338-3.2575 0-4.9714-0.0982-0.6916-0.038-1.2833 0.492-1.3213 1.1837-0.0379 0.6916 0.4921 1.2833 1.1837 1.3213 1.6826 0.0964 3.3147 0.1327 4.8981 0.1062 1.8706 3.2257 5.436 5.7673 9.0016 8.3083 1.975 1.4073 3.9507 2.8154 5.57 4.3051 4.0139 3.6925 5.7998 8.0975-0.681 15.142-0.4692 0.5099-0.4363 1.3038 0.0736 1.7731 0.5099 0.4692 1.3038 0.4362 1.7731-0.0736 0.6298-0.6846 1.1935-1.3491 1.6971-1.9954 1.224 1.5632 3.6781 4.0814 8.8419 2.232 4.9558-1.7747 4.1735-6.0294 3.6381-8.9393-0.0526-0.2857-0.1012-0.5525-0.1395-0.7818 0.1461 0.0605 0.2862 0.1252 0.4218 0.1942 1.5756 0.8022 2.3646 2.1883 2.6447 3.7559 0.3071 1.7182 0.0355 3.6563-0.4951 5.3613-0.2461 0.7904-0.5492 1.5304-0.8771 2.1746-0.017 0.0333-0.0701 0.1087-0.1638 0.2263-0.6118 0.7678-2.1789 2.2636-4.6406 3.0586-2.4986 0.8071-5.9157 0.8686-10.202-1.3144-1.2088-0.6155-2.4827-1.4057-3.8191-2.4023l0.0768-0.0772c0.4854-0.4936 0.4788-1.2876-0.0148-1.7731-0.4937-0.4854-1.2876-0.4788-1.7731 0.0148-1.9559 1.9864-4.3725 2.9577-7.1235 3.1901-2.8753 0.2427-6.1276-0.3067-9.6141-1.3512-0.6237-0.1859-1.2785 0.1356-1.5201 0.7253-0.1679-0.0611-0.351-0.0868-0.5406-0.0697-0.7166 0.066-1.3947 0.161-2.0869 0.2576-1.7861 0.2496-3.6721 0.5134-5.0378 0.1739-0.5181-0.1287-0.9832-0.419-1.3539-0.7761-0.4092-0.3944-0.6855-0.8467-0.7765-1.234-0.0241-0.1027-0.0407-0.2066-0.0487-0.3101-0.0363-0.4596 0.0968-0.915 0.4217-1.2965 0.3871-0.4547 1.0474-0.8355 2.0204-1.0645 0.3094-0.0727 0.6482-0.1296 1.0184-0.1667 1.4512 1.6158 3.2289 2.983 5.2737 4.1459 0.6021 0.3418 1.3675 0.1306 1.7093-0.4714s0.1306-1.3674-0.4714-1.7093c-3.1943-1.8163-5.6282-4.1708-7.003-7.2724-1.391-3.1381-1.7283-7.0834-0.7155-12.062 0.1383-0.6782-0.2993-1.3402-0.9774-1.4785s-1.3402 0.2992-1.4785 0.9773c-0.5756 2.8297-0.7508 5.375-0.5715 7.6687-0.4004-0.3825-0.787-0.7981-1.1531-1.2408-1.0422-1.2598-1.9101-2.7169-2.4898-4.2118-0.2495-0.6455-0.9754-0.9664-1.6209-0.7169s-0.9665 0.9753-0.717 1.6208c0.6812 1.7564 1.6895 3.4544 2.8927 4.909 1.0976 1.3268 2.371 2.4664 3.7215 3.2826 0.2208 0.7897 0.4917 1.5441 0.8109 2.2639 0.3172 0.7159 0.6804 1.3959 1.0873 2.0434-0.2729 0.0681-0.532 0.1463-0.7776 0.2344-0.9219-1.3766-2.0288-2.6988-3.1546-4.0438-2.4565-2.9343-5.0109-5.9857-5.2818-9.197-0.1743-2.0666-0.257-4.2145-0.0485-6.3632 0.1809-1.866 0.5815-3.7618 1.335-5.6502 2.4559 0.1577 5.0698 0.0928 7.846-0.2344 0.6888-0.0786 1.1837-0.7011 1.1052-1.3899-0.0786-0.6888-0.7012-1.1837-1.39-1.1051-7.0418 0.83-12.936-0.1205-17.789-2.1372-5.8678-2.4381-10.238-6.4418-13.288-10.74-1.5044-2.1194-2.9353-5.4987-4.3908-8.9369-0.5193-1.2265-1.0418-2.4606-1.5496-3.6008-1.057-2.3739-1.9605-4.67-2.5217-6.9537-0.5457-2.2206-0.7655-4.4401-0.4801-6.7284 0.2703-2.1687 1.3307-3.3125 2.4597-4.5306 0.9738-1.0506 1.9903-2.1473 2.7713-3.8815 0.2848-0.632 0.0032-1.3755-0.6288-1.6603-0.0522-0.0235-0.1049-0.0435-0.1582-0.0595l0.0372-0.2551c0.205 0.1872 0.4727 0.3085 0.7713 0.326 0.6917 0.0406 1.2855-0.4872 1.3262-1.1789 0.3724-6.2636 1.5159-11.856 3.4738-16.739 1.9418-4.8425 4.6895-8.993 8.2856-12.413 2.8716-2.7312 6.4641-4.7935 10.562-6.484 4.1553-1.7145 6.1829-1.9716 11.185-3.2357 0.6726-0.1681 1.0816-0.8501 0.9136-1.5227-0.1681-0.6726-0.8501-1.0816-1.5227-0.9136-5.0875 1.2857-7.2151 1.5739-11.529 3.3537-4.3709 1.8034-8.2226 4.022-11.338 6.9849-3.8619 3.6726-6.8082 8.1188-8.8848 13.297-0.4453 1.1104-0.8499 2.254-1.2156 3.4312-3.3088-6.357 1.6638-10.363 5.8929-13.768 1.4218-1.145 2.7686-2.2294 3.8144-3.3732 3.8652-4.2273 7.1721-8.5314 10.132-12.383 4.4262-5.7606 8.0543-10.483 11.446-12.191 3.9206-1.9752 7.9073 0.4625 13.412 10.976-3.024 0.7687-6.0387 1.9891-9.0089 3.6317-0.6075 0.3336-0.8297 1.0969-0.4961 1.7045 0.2258 0.4113 0.6492 0.6464 1.0873 0.6515 0.5113 0.0284 1.0894 0.0722 1.6727 0.1353-0.1659 0.0793-0.3311 0.1604-0.4943 0.244-1.1788 0.6034-2.28 1.3175-3.1374 2.1273-0.5045 0.4746-0.5286 1.2686-0.054 1.7731 0.2187 0.2326 0.5055 0.3632 0.8004 0.3901-0.7858 0.6464-1.5111 1.4261-2.175 2.3398-0.4068 0.5614-0.2814 1.3466 0.28 1.7535s1.3466 0.2814 1.7535-0.28c0.6068-0.8353 1.2639-1.5228 1.9696-2.0619 0.6671-0.5097 1.3789-0.8904 2.1335-1.1417 0.1727-0.0406 0.3389-0.1189 0.4876-0.2358 0.5451-0.4286 0.6398-1.2183 0.2112-1.7634-0.2533-0.3215-0.5534-0.5831-0.9007-0.786 1.1258-0.5556 2.3309-1.0033 3.4198-1.3223 0.2131-0.0515 0.4152-0.1602 0.5829-0.3251 0.4937-0.4855 0.5003-1.2794 0.0148-1.7731-0.4676-0.4779-1.2743-0.8119-2.2224-1.0424 3.3197-1.3979 6.6611-2.2221 9.9707-2.423 4.3827-0.2662 7.2639-0.0157 11.441 2.0073 0.6237 0.301 1.3739 0.0392 1.6749-0.5846 0.0178-0.0369 0.0333-0.0739 0.0472-0.1115zm42.391 56.591l0.4445 0.9843c-0.0849 0.0205-0.1685 0.0506-0.2503 0.09-0.6237 0.301-0.8855 1.0511-0.5845 1.6749 0.7394 1.5277-0.8333 4.4934-3.5772 8.0149-3.8095 4.8894-9.8349 10.582-15.381 15.224-3.1913 2.6712-5.0298 5.6895-6.2776 7.7385-0.3224 0.5294-0.5989 0.9839-0.82 1.3115-1.5902-2.3329-2.7171-5.2286-3.4449-8.4796-0.0077-0.1295-0.0352-0.2584-0.0827-0.3806-0.511-2.4038-0.8095-4.9937-0.9189-7.6892-0.3228-7.942 0.9942-16.757 3.3084-24.434 0.3343-1.1094 0.777-2.6422 1.234-4.2248 1.7663-6.1178 3.7639-13.036 6.3247-17.6 1.5638-2.7869 3.4818-4.4101 4.5771-5.3368 0.8489-0.7184 1.3821-1.1698 1.3755-1.9478-0.0109-1.2746-0.9661-1.5242-3.3884-1.5307-0.382-0.6278-0.7785-1.2469-1.1891-1.8564 2.6103-0.6712 5.2153 0.1611 6.4368 2.7873 1.1625 2.4995 0.5723 6.857 1.5931 10.572l0.4245 1.5452c1.188 4.287 2.6679 8.8456 4.2466 13.068 1.5091 4.0366 2.7254 7.0624 4.2437 9.9495 0.3227 0.6131 1.0815 0.8483 1.6946 0.5256l0.0109-0.0061zm-76.544 68.277c-0.0186-1.0076 0.3117-1.9983 1.0334-2.8459 0.0984-0.1155 0.2041-0.2281 0.3167-0.337-0.6779-0.9938-1.5134-2.023-2.3856-3.0702-0.7763 0.197-1.3122 0.6429-1.6157 1.2039-0.2466 0.4562-0.3537 0.9966-0.3243 1.553 0.0304 0.577 0.2099 1.1696 0.5341 1.7078 0.4861 0.807 1.3036 1.4808 2.4414 1.7884zm59.965-103.35c-0.0046-0.1839-0.0317-0.2124-0.0852-0.1516l0.0852 0.1516z"/>
   <path class="fil1" d="m64.287 128.84c0.7683 0.0954 2.196-1.1375 3.7852-0.759 1.3521 0.322 2.6989 2.3175 2.6989 3.7172 0 1.5232-1.2855 2.53-2.6923 3.4036-1.0266 0.6373-2.3215 1.7815-3.7281 1.7815-2.0059 0-3.3796-1.6029-4.4596-3.3521-0.7151-1.1586-1.516-2.3101-1.516-3.3598 0-1.7096 0.7089-3.576 2.9605-3.1449 2.2058 0.4223 1.7898 1.5692 2.9514 1.7135z"/>
   <path class="fil1" d="m94.416 143.13c0.702-1.4822 3.4834-3.864 4.5151-2.5331 1.0317 1.3307-1.0219 1.8762-1.7458 2.662-0.7239 0.7857-1.5751 2.412-2.2409 2.0782-0.6658-0.3336-1.2547-0.5995-0.5284-2.2071zm6.1181-0.0374c1.5432 0.555 1.8544 1.1513 0.8198 1.6337-1.0343 0.4825-0.3888 0.6546-1.9083 0.6304-1.5195-0.0243-1.849-0.9248-1.5813-1.6198 0.2677-0.6951 0.9994-1.2115 2.6698-0.6443zm-88.665-7.1213c0.9036-0.2069 1.057 0.1666 1.057 0.8427 0 0.6762-0.9007 0.9221-1.343 0.9542s-0.8661-0.2144-0.8661-0.8905c0-0.6762 0.2486-0.6995 1.1521-0.9064zm6.1027 0.3815c0.6653 0.4454 0.9298 0.3099 0.9298 0.9861 0 0.6761-0.5668 1.6059-0.9298 1.4632-0.363-0.1428-0.7866-0.8031-0.7866-1.4792 0-0.6762 0.1213-1.4154 0.7866-0.9701zm3.3553-0.2901c1.5432 0.555 2.2357 2.6941 1.2013 3.1765-1.0343 0.4824-1.0881-0.0932-1.9402-0.7374-0.8522-0.6445-1.5471-1.1952-1.2794-1.8902 0.2675-0.6951 0.3479-1.1162 2.0183-0.5489zm5.1492 0.6998c1.5432 0.555 2.3945 3.2668 1.3601 3.7492-1.0343 0.4824-1.2469-0.6658-2.099-1.3101-0.8522-0.6444-1.6743-1.0042-1.4066-1.6993 0.2676-0.695 0.4751-1.307 2.1455-0.7398z"/>
   <path class="fil2" d="m50.479 16.573c-7.2119-6.2322-13.714-12.507-19.834-0.2545-1.558 3.1197-2.7351 5.7936-5.9756 7.1253-2.3906 0.9825-4.2462 3.2061-7.2468 4.7077-2.4394 1.221-4.9309 3.7184-6.9927 5.344-2.5592 2.0176-4.1646 9.2377-2.1614 11.706 1.407 1.7333 7.8608-10.124 9.1541-12.215 3.9179-6.3358 14.119-12.051 21.868-8.5249 3.5141 1.5992 5.9262 0.6564 7.3741-1.9085 0.927-1.6421 2.9837-1.2988 3.5598-2.7992 0.2622-0.6824-2.6762-2.1178 0.2544-3.181z"/>
   <path class="fil2" d="m80.611 21.535c-7.2204 1.6679-1.7198 3.4759 2.9242 6.8707 9.2733 6.7787-2.3867 29.817-4.704 38.171-0.9713 3.5009-1.3432 14.342 0.6357 17.559 3.9815 6.4712 5.3397-0.3903 5.3397-6.2346 0-10.336 5.6249-20.878 8.0098-30.028 2.4248-9.3028 8.8858-6.6677 2.2885-12.469-4.2111-3.7028-8.8587-13.742-14.494-13.869z"/>
   <path class="fil2" d="m90.82 106.93c1.8283-5.09-1.8243-13.548-0.1652-19.613 2.014-7.3643 4.2978-7.1308 9.1541-3.181 2.7017 2.1972 9.1539-0.1292 9.1539 3.817 0 1.8337-7.3244 6.5767-8.3912 8.7793-0.9773 2.0183-4.3804 3.7413-4.9583 5.344-0.3634 1.0077-4.2072 5.336-4.7933 4.8541z"/>
   <path class="fil2" d="m82.01 92.533c-1.8387 0.805-4.043 4.7128-5.3399 6.4891-3.2502 4.4522-8.7841 6.6663-12.968 9.0338-0.3737 0.2115-3.0081 1.5693-1.6528 2.4175 2.9732 1.8604 12.647-3.1928 14.875-4.0716 1.3118-0.5171 6.9927-4.0685 6.9927-5.2167 0-1.55-0.5129-8.7793-1.9071-8.6521z"/>
   <path class="fil2" d="m32.044 118.49c1.466 6.3619 4.3659-4.3077 7.6284-1.6542 2.191 1.7818 3.2316-1.8055 5.2126-2.9263 0.5304-0.3002 3.6228-2.5589 3.687-3.0538 0.1178-0.9103-3.3215-0.2545-4.0685-0.2545-2.9975 0-8.1062-0.3496-10.298 0.8908-1.8953 1.0723-1.1536 5.4846-2.1614 6.998z"/>
   <path class="fil2" d="m58.87 110.98c-3.3989 0-2.7433 0.0402-4.0685 2.163-1.748 2.7994 0.7275 6.453 2.0343 7.7615 1.2306 1.2318 4.222 1.0178 6.4841 1.0178 2.0655 0 3.3804-0.7646 5.3397-0.509 3.1138 0.406-3.362-4.6181-3.9412-5.0893-1.4404-1.1713-2.4111-1.3687-3.3056-2.7993-0.3887-0.622-1.5753-2.4175-2.5428-2.5447z"/>
   <path class="fil2" d="m25.56 94.569c1.2518 0 3.4327-1.7896 3.4327 0 0 4.9482-5.3355 4.4533-9.6624 4.4533-3.3808 0-6.1428-4.1035-8.137-5.7256-0.9551-0.7767-2.5355-6.7401 0.2543-3.9443 0.8194 0.8213 1.7661 1.301 3.8142 0.1273 0.7873-0.4511 1.6419-2.563 3.1466-1.2089 0.5781 0.5201 0.2277 3.6725 0.6357 4.3262 1.6048 2.5706 3.6529 1.8448 7.4059 1.8448l-0.89 0.1272z"/>
   <path class="fil2" d="m13.1 75.356c-2.507-0.9244-6.0261-1.9021-4.7041-5.344 0.969-2.5225 9.4614 1.9477 10.044-3.6898 0.0711-0.6886 1.4328-2.834 1.7798-3.181 0.9399-0.9399 1.2714-1.5929 1.2714-3.3081 0-3.8371 2.0344-2.6201 2.0344 0.509 0 5.9332-3.5104 15.014-10.426 15.014z"/>
   <path class="fil2" d="m37.766 82.354c-0.7398-0.6835-2.6701-1.684-2.6701 0 0 2.9516 0.7849 3.457 2.2885 4.9623 0.713 0.7139 2.1709 1.0912 3.5599 1.2723 0.7984 0.104 2.4198 0.3127 2.5428-0.6363 0.1162-0.8982-2.3252-2.1282-2.9242-2.5447-0.8932-0.6209-1.1967-1.3245-1.6528-1.7813-0.1768-0.177-1.2716-1.3571-1.1441-1.2723z"/>
   <path class="fil2" d="m60.65 50.545c-0.6382-0.1474-1.4938-0.4655-2.0343-0.1273-0.1782 0.1114-0.2105-0.2112-0.2543 0.1273-0.0473 0.3632-0.1872 0.7481-0.1271 1.2724 0.1738 1.5158 2.5683 1.2723 4.1956 1.2723 0.4617 0 0.8433 0.0237 1.0171-0.2545 0.3617-0.5797-0.6625-1.0768-0.8901-1.145-0.4792-0.1435-0.7561-0.5919-1.2714-0.7635l-0.6355-0.3817z"/>
   <path class="fil2" d="m22.699 36.168c0.6943 0 1.8092 1.2421 1.0807 1.9721-0.5767 0.5782-1.0237 0.3638-1.9705 0.2545-0.6056-0.0697-0.9811-0.5726-1.4621-0.5726-0.9824 0-2.293-0.7319-0.89-1.2723 0.8648-0.3329 1.994-0.3817 3.2419-0.3817z"/>
   <path class="fil2" d="m70.059 16.446c0.5303 0.8848 0.6991 1.2676 0.6991 2.3538 0 0.6653-0.0634 1.118-0.0634 1.7813 0 1.1222 5.1823 0.0667 4.9583-1.654-0.0724-0.556-1.7449-1.198-2.2249-1.5268-0.7811-0.5355-2.1051-1.018-3.3691-0.9543z"/>
   <path class="fil2" d="m50.543 18.8c1.0475 0.2996 4.3249 0.5876 4.6406 1.1453 0.9787 1.7301-5.9206 1.3876-7.247 1.8449-4.0083 1.3824 5.1148 2.2833 5.6576 2.3538 0.4256 0.0553 0.9285 1.56 0.5086 1.7813-1.3861 0.7307-6.2619 0.5548-7.5647 1.5904-1.8365 1.4603-3.428-0.4496-2.6064-1.2723 1.286-1.2874 1.944-3.4775 2.9242-5.0895 0.5312-0.8738 2.6602-2.5684 3.6871-2.3539z"/>
   <path class="fil2" d="m34.714 139.17c0-0.862 1.3427 0.4575 2.9593 0.6248 1.6166 0.1672 3.508-0.8171 3.5884-0.6884 1.3151 2.1033-2.485 3.6261 3.3692 3.6261 4.1207 0 4.1728-4.1016 5.912-4.7713 3.105-1.1955 10.202 3.3451 14.684 2.0993 2.3075-0.6414 4.2936-3.6222 6.2297-3.1171 1.9134 0.499-1.2965 4.7958-2.3521 5.8528-3.3364 3.3405-5.9234 3.0223-10.552 2.8628-2.0997-0.0721-3.1049-0.047-4.9585-1.0816-1.126-0.6285-4.6154 1.2926-6.8018 1.2089-0.7915-0.0303-4.6718-0.3433-5.2763-0.6999-1.0367-0.6113-1.2177-2.2266-2.67-2.2266-3.6253 0-3.1698-3.094-4.132-3.6898z"/>
   <path class="fil2" d="m70.376 144.7c0.1164 0.35 6.1389 2.9792 7.1834 3.0537 2.5816 0.1841 8.5724 1.5769 10.235-1.0816 1.127-1.8028-3.0359-1.0081-3.8776-1.2086-2.2764-0.5423-4.896-0.4158-6.8656-1.3996-1.1194-0.5589-7.73-2.7527-6.9925 0.4452l0.3177 0.1909z"/>
   <path class="fil2" d="m87.413 135.86c0-0.9326-0.1924-1.2714 0.5085-1.5904 1.0996-0.5008 1.8436 0.6529 1.8436 1.5904 0 0.888-0.2912 1.399-0.3814 2.0994-0.0632 0.4904-1.2074 2.2464-1.78 1.7814-0.5446-0.4425 0.1631-1.5107-0.0636-2.0996-0.1674-0.4352-0.1907-1.4868-0.1271-1.7812z"/>
   <path class="fil1" d="m21.362 34.912c-2.3423-0.0637-4.4343 2.8951-4.2753 3.817s2.1874-1.8128 3.9256-1.304c1.7381 0.5088 2.3043-0.3825 2.3043-1.0499s-0.3751-1.3995-1.9546-1.4631z"/>
   <path class="fil1" d="m62.825 49.894c2.4648 0.8731 3.8341 4.7931 3.2989 5.6894s-1.9284-2.765-3.9425-2.9321c-2.0141-0.1672-2.2463-1.3224-1.9787-2.0174 0.2677-0.6951 0.9519-1.307 2.6223-0.7399z"/>
   <path class="fil3" d="m21.764 52.191c-0.1685-0.2585-0.2351-0.4883-0.0025-0.6755s0.4724-0.0931 0.6869 0.1581c0.2335 0.2258 0.6074 0.7769 0.7357 1.2696 0.1313 0.5037 0.169 1.0285 0.0956 1.5768-0.0415 0.3158-0.306 0.5345-0.5903 0.4884-0.2842-0.0461-0.4811-0.3399-0.4396-0.6558 0.0514-0.3841 0.0265-0.746-0.0627-1.0884-0.0922-0.3539-0.2028-0.7357-0.4231-1.0732z"/>
   <path class="fil3" d="m42.767 64.103c0.324-0.11 0.5395-0.2648 0.4649-0.5875-0.0746-0.3226-0.3483-0.4047-0.7075-0.3326-0.3583 0.037-1.0619 0.2615-1.5113 0.6034-0.4596 0.3493-0.8519 0.7812-1.1635 1.3097-0.1802 0.3039-0.0993 0.6758 0.1802 0.8304 0.2795 0.1545 0.6525 0.033 0.8326-0.2709 0.2183-0.3702 0.4881-0.6688 0.8004-0.9063 0.3228-0.2456 0.6808-0.5028 1.1042-0.6462z"/>
   <path class="fil3" d="m20.781 73.219c0.3375 0.0563 0.6007 0.0217 0.6874-0.2978 0.0868-0.3196-0.1155-0.5214-0.4661-0.6277-0.3332-0.1368-1.0594-0.2716-1.617-0.1829-0.5702 0.0906-1.12 0.2856-1.6445 0.604-0.3025 0.1826-0.4071 0.5485-0.2338 0.8169 0.1732 0.2683 0.5593 0.3376 0.8617 0.155 0.3674-0.223 0.7463-0.3586 1.1338-0.4202 0.4006-0.0637 0.8377-0.1211 1.2785-0.0473z"/>
   <path class="fil3" d="m11.986 75.999c-0.9496 0.1367-1.651-0.7088-1.6605-1.0545-0.0094-0.3458 0.2634-0.634 0.6092-0.6434 3.653-0.1078 7.111 0.2536 10.353 1.1331 3.2533 0.8827 6.2926 2.2865 9.0963 4.2603 0.2834 0.1992 0.3515 0.5909 0.1522 0.8743-0.1992 0.2834-0.591 0.3514-0.8743 0.1522-2.679-1.8859-5.5869-3.2284-8.7032-4.0739-3.1283-0.8486-5.4479-0.7522-8.9723-0.6481z"/>
   <path class="fil4" d="m50.179 64.97c7.3365 0 13.286 5.3274 13.286 11.896 0 6.5693-5.9496 11.897-13.286 11.897s-13.731-4.1824-13.731-10.751c0-6.5691 6.3946-13.042 13.731-13.042z"/>
   <path class="fil4" d="m12.991 49.32c5.4412 0.7635 7.2472 4.676 7.2472 9.8926s-2.5052 9.829-7.9463 9.5109-6.2932-4.1671-5.2125-8.9383 0.4705-11.229 5.9116-10.465z"/>
   <path class="fil1" d="m19.301 61.076c-0.4052 0.4311-0.8934 0.6824-1.4193 0.6824-1.4042 0-2.5428-1.7948-2.5428-4.0077 0-1.142 2.3051-2.3952 0.7893-2.9026-1.5276-0.506-4.7869 2.0477-6.2051 5.2723-0.9558 2.1725-1.2113 4.4373-0.8444 6.2697-0.787-0.9005-1.3814-2.0037-1.6587-3.191-0.1179-0.5065-0.6244-0.8216-1.1309-0.7036s-0.8216 0.6245-0.7036 1.131c0.5418 2.3204 2.0457 4.3825 3.9288 5.6289 1.1152 0.7384 2.3726 1.198 3.6559 1.2675 1.3077 0.071 2.6303-0.2628 3.8473-1.116 1.6744-1.1739 3.126-3.333 3.9987-6.7834 0.047-0.1861 0.0909-0.3657 0.1313-0.5382 1.0032-4.2803 0.7614-7.4146-0.2112-9.6193-1.9685-4.4623-6.0533-4.7291-10.163-4.025-2.1329 0.3664-4.1038 0.8048-4.8019-1.4635-0.1525-0.4963-0.3291-0.9342-0.8255-0.7817-0.4963 0.1526-0.3935 0.647-0.2409 1.1433 1.2172 3.1523 3.1724 3.4763 6.1852 2.9586 3.2066-0.5505 5.9283 0.5318 7.5184 4.136 0.7535 1.7082 1.006 4.2079 0.6925 6.6423zm-6.1235 1.7006c1.4042 0 2.5428 1.1537 2.5428 2.5764s-1.1386 2.5765-2.5428 2.5765-2.5428-1.1538-2.5428-2.5765 1.1386-2.5764 2.5428-2.5764z"/>
   <path class="fil3" d="m38.718 74.391c-0.301 0.6238-1.1467 0.9494-1.7704 0.6484-0.6238-0.301-0.0592-2.1327 0.2418-2.7565 3.8461-7.9923 9.3138-8.7581 15.285-8.4567 2.7346 0.1379 5.3447 0.9305 7.5159 2.1755 2.2144 1.2696 3.6927 2.5123 4.7185 4.5393 0.646 1.1704 2.698 1.4051 4.3839 1.3532 1.2458-0.0381 2.2128-0.6989 2.4254 0.0431 0.3361 1.1729-3.5929 2.6378-5.4148 2.7866 0.0831 1.7628-0.5678 3.4792-2.186 5.3378-0.4637 0.5154-2.0842 1.5749-2.5996 1.1112s-0.2075-0.9398 0.2563-1.4552c2.8208-4.6842 0.4407-7.2133-3.2126-10.04-1.8479-1.0597-4.67-2.3386-6.9903-2.4557-5.076-0.2562-8.4389 0.7061-12.653 7.1693zm-2.8157 6.827c-0.2766-0.4393-0.1445-1.0201 0.2948-1.2967s1.0201-0.1446 1.2967 0.2947c1.8412 2.9306 4.0865 5.1255 6.8506 6.3777-1.9019-2.1767-1.9445-5.7249 0.2046-9.0757 2.3954-3.7358 6.7539-6.0404 10.521-5.8205-0.5393 0.8141-0.8721 1.9297-0.8721 3.1606 0 2.491 1.3623 4.5112 3.0422 4.5112s3.042-2.0202 3.042-4.5112c0-0.0586-0.0011-0.1165-0.0027-0.1746 1.2233 2.1806 1.0114 5.2401-0.8558 8.1511-1.2425 1.9374-3.0133 3.4895-4.9557 4.5048 0.6863-0.1421 1.3932-0.3169 2.1199-0.527 0.4983-0.1444 1.0198 0.1425 1.1641 0.6408 0.1444 0.4983-0.1425 1.0198-0.6408 1.1641-5.032 1.4552-9.2142 1.372-12.707 0.0416-3.509-1.3367-6.286-3.9142-8.5018-7.4409zm12.558-1.0207c1.5804 0 2.862 1.2987 2.862 2.9 0 1.6012-1.2816 2.8999-2.862 2.8999-1.5806 0-2.8621-1.2987-2.8621-2.8999 0-1.6013 1.2815-2.9 2.8621-2.9z"/>
   <path class="fil5" d="m16.016 81.16c2.3464 0.5249 4.8204 0.6726 7.2309 2.6243-0.8424 1.3519-3.1624 1.6859-4.6723 1.5745-1.1548-0.9066-2.7707-2.7675-2.5586-4.1988z"/>
   <ellipse class="fil4" cx="48.526" cy="82.179" rx="3.1149" ry="3.2127"/>
   <path class="fil3" d="m18.087 81.043c0.2411 0.0955 0.3589 0.3688 0.2634 0.6099s-0.3687 0.3589-0.6098 0.2634c-0.9056-0.2688-0.1963 2.1614 1.6622 2.8064 0.2948 0.1023 1.0889 0.0131 2.243-0.4408 1.5845-0.6221 0.2846-1.0381-0.6088-1.4131-0.24-0.1005-0.3528-0.3769-0.2523-0.6169 0.1005-0.2401 0.3769-0.3529 0.617-0.2524 1.3229 0.5553 1.9871 1.0811 2.2091 1.5601 0.2071 0.4461 0.1054 0.836-0.2051 1.172-0.2301 0.2489-0.5858 0.4537-1.0041 0.618-1.3186 0.5186-3.4839 0.6835-3.8767 0.5471-0.6995-0.2427-1.7307-0.9814-2.453-1.9664-0.5544-0.7562-0.942-1.667-0.8953-2.6335 0.0363-0.7542 0.404-1.0012 0.9671-0.9743 0.3855 0.0185 0.8334 0.2222 1.3105 0.4414l0.024 0.0102c0.2096 0.0964 0.426 0.196 0.6088 0.2689z"/>
   <ellipse class="fil4" transform="matrix(1.6605 .64728 -.64728 1.6605 20.505 83.268)" rx=".4949" ry=".3257"/>
   <path class="fil4" d="m21.435 94.663l0.0319 2.497 2.6857-1.9086-2.7176-0.5884zm-8.6931-4.2307l1.1602 2.8787 1.6052-2.4175-2.7654-0.4612z"/>
   <polygon class="fil6" points="21.467 94.584 16.89 91.005 15.284 91.641 13.886 93.948 15.332 97.24 17.509 98.544 20.656 98.512 21.387 97.876"/>
   <path class="fil3" d="m10.345 84.565c0.0881-0.3348 0.4315-0.535 0.7664-0.4469 0.3348 0.088 0.535 0.4314 0.4469 0.7663-0.2379 0.8954-0.2862 1.872-0.1481 2.7167 0.1216 0.7423 0.3793 1.3614 0.7671 1.6849 0.8167 0.6811 2.2473 0.6038 3.2715 0.5485 0.4047-0.0217 0.7549-0.0406 1.0442-0.0137 1.2861 0.1201 1.8898 1.0577 2.5281 2.0495 0.3488 0.542 0.7111 1.1048 1.1818 1.4519 1.044 0.7701 2.3938 1.1718 4.0095 0.8523 1.2858-0.2542 2.484-1.1399 4.0464-2.4958-0.1689-0.2217-0.1896-0.522-0.0319-0.734 0.1907-0.2563 0.4748-0.2228 0.8471-0.0671 0.7043 0.316 1.2224 0.6037 1.6978 1.424 0.2784 0.4913 0.5176 1.0912 0.6493 1.6579 0.1026 0.7158-0.8576 0.9601-1.1873 0.9907-0.3297 0.0305-0.645-0.5694-0.7105-0.9053-0.0371-0.191-0.0706-0.4004-0.1125-0.6043-0.8946 0.7333-1.9361 1.3092-3.0336 1.683 0.0333 0.1587 0.0061 0.3303-0.0904 0.4759-1.3551 2.0454-3.3576 3.2867-5.371 3.7416-1.2114 0.2738-2.4311 0.2638-3.5212-0.0256-1.12-0.2971-2.1073-0.8881-2.821-1.7679-0.74-0.9123-1.1791-2.1217-1.1574-3.6178-0.0743-0.0615-0.1301-0.1458-0.1556-0.2463l-0.6604-2.5908c-0.4131-0.2263-0.8223-0.5095-1.2235-0.844-0.6348-0.5295-1.0367-1.422-1.2044-2.4462-0.1654-1.0121-0.1092-2.1762 0.1727-3.2375zm10.614 13.124c-0.1075-0.0849-0.1768-0.2153-0.1786-0.3629l-0.0271-2.2564c-0.4511-0.191-0.8843-0.4346-1.2922-0.7357-0.0425-0.0313-0.0861-0.0609-0.1301-0.0887-0.4119 0.0223-0.8721 0.0358-1.2057 0.1734-0.3628 0.1495-0.7002 0.3689-1.006 0.6708-0.2522 0.2476-0.6437 0.2693-0.8743 0.0483-0.2307-0.221-0.162-0.4988 0.0386-0.8488 0.3169-0.5206 0.6012-0.9289 1.1363-1.2595-0.3881-0.599-0.7716-1.1415-1.2965-1.2899l-1.4637 1.525c0.028 0.0798 0.0405 0.1668 0.0335 0.2564-0.1115 1.3866 0.2281 2.4653 0.853 3.2355 0.5393 0.665 1.235 0.9403 2.104 1.1708 0.8987 0.2386 1.8649 0.1176 2.8791-0.1116 0.1518-0.0342 0.2942-0.0772 0.4297-0.1267zm1.9015-2.1055c-0.3938-0.0338-0.7829-0.0982-1.1637-0.1957l0.0123 1.0239 1.1514-0.8282zm-8.0297-3.8555c-0.3782-0.0036-0.7595-0.0636-1.1408-0.1757l0.2749 1.078 0.8659-0.9023z"/>
   <path class="fil7" d="m4.0754 65.878c-1.2751 1.0636-2.9229 3.8113-2.9229 5.5348 0 1.9071 0.5184 2.3147 2.1603 2.672 2.2689 0.4937 4.4479-0.1386 4.4479-2.672 0-2.4087-1.3995-5.2804-3.4948-5.2804l-0.1905-0.2544z"/>
   <path class="fil7" d="m45.568 91.173c-0.6003-0.4581-1.1413-0.4567-1.7155-0.7004-2.8718-1.2185-4.1849 0.2672-3.4314 3.5017 0.3338 1.4337 2.7108 3.8517 4.3208 3.8517 1.4539 0 2.6252 0.4779 4.0668-0.07 1.5608-0.5931 2.8586-2.2448 2.0332-4.2719-0.8634-2.1214-3.1565-1.781-5.2739-2.3111z"/>
   <path class="fil3" d="m42.114 17.853c0.6726-0.168 1.3546 0.241 1.5227 0.9136 0.168 0.6726-0.241 1.3546-0.9136 1.5227-5.0025 1.2641-7.0301 1.5212-11.185 3.2357-4.0975 1.6905-7.69 3.7528-10.562 6.484-3.5961 3.4198-6.3438 7.5703-8.2856 12.413-1.9579 4.8826-3.1014 10.475-3.4738 16.739-0.0407 0.6917-0.6345 1.2195-1.3262 1.1789-0.6916-0.0406-1.2195-0.6345-1.1789-1.3261 0.229-3.8516 0.7414-7.4685 1.5455-10.842-0.0641-0.0595-0.1233-0.1261-0.1753-0.2008-6.4657-9.2305-0.0244-14.418 5.3859-18.774 1.3594-1.0948 2.6472-2.1318 3.5395-3.1077 3.8062-4.1628 7.0716-8.4129 9.994-12.216 4.6237-6.0177 8.4136-10.95 12.3-12.908 5.4293-2.7353 10.558-0.0113 17.087 12.676 1.0679-0.181 2.1358-0.3047 3.2022-0.3694 4.8054-0.2921 8.103 0.0369 12.678 2.2528 0.6238 0.301 0.8856 1.0512 0.5846 1.6749-0.301 0.6238-1.0512 0.8856-1.6749 0.5846-4.1771-2.023-7.0583-2.2735-11.441-2.0073-3.3096 0.2009-6.651 1.0251-9.9707 2.423 0.9481 0.2305 1.7548 0.5645 2.2224 1.0424 0.4855 0.4937 0.4789 1.2876-0.0148 1.7731-0.1677 0.1649-0.3698 0.2736-0.5829 0.3251-1.0889 0.319-2.294 0.7667-3.4198 1.3223 0.3473 0.2029 0.6474 0.4645 0.9007 0.786 0.4286 0.5451 0.3339 1.3348-0.2112 1.7634-0.1487 0.1169-0.3149 0.1952-0.4876 0.2358-0.7546 0.2513-1.4664 0.632-2.1335 1.1417-0.7057 0.5391-1.3628 1.2266-1.9696 2.0619-0.4069 0.5614-1.1921 0.6869-1.7535 0.28s-0.6868-1.1921-0.28-1.7535c0.6639-0.9137 1.3892-1.6934 2.175-2.3398-0.2949-0.0269-0.5817-0.1575-0.8004-0.3901-0.4746-0.5045-0.4505-1.2985 0.054-1.7731 0.8574-0.8098 1.9586-1.5239 3.1374-2.1273 0.1632-0.0836 0.3284-0.1647 0.4943-0.244-0.5833-0.0631-1.1614-0.1069-1.6727-0.1353-0.4381-0.0051-0.8615-0.2402-1.0873-0.6515-0.3336-0.6076-0.1114-1.3709 0.4961-1.7045 2.9702-1.6426 5.9849-2.863 9.0089-3.6317-5.5044-10.513-9.4911-12.951-13.412-10.976-3.3913 1.7084-7.0194 6.4306-11.446 12.191-2.9595 3.8517-6.2664 8.1558-10.132 12.383-1.0458 1.1438-2.3926 2.2282-3.8144 3.3732-4.2291 3.4056-9.2017 7.4112-5.8929 13.768 0.3657-1.1772 0.7703-2.3208 1.2156-3.4312 2.0766-5.1783 5.0229-9.6245 8.8848-13.297 3.1154-2.9629 6.9671-5.1815 11.338-6.9849 4.3139-1.7798 6.4415-2.068 11.529-3.3537zm28.965 125.4c1.3364 0.9966 2.6103 1.7868 3.8191 2.4023 4.2867 2.183 7.7038 2.1215 10.202 1.3144 2.4617-0.795 4.0288-2.2908 4.6406-3.0586 0.0937-0.1176 0.1468-0.193 0.1638-0.2263 0.3279-0.6442 0.631-1.3842 0.8771-2.1746 0.5306-1.705 0.8022-3.6431 0.4951-5.3613-0.2801-1.5676-1.0691-2.9537-2.6447-3.7559-0.1356-0.069-0.2757-0.1337-0.4218-0.1942 0.0383 0.2293 0.0869 0.4961 0.1395 0.7818 0.5354 2.9099 1.3177 7.1646-3.6381 8.9393-5.1638 1.8494-7.6179-0.6688-8.8419-2.232-0.5036 0.6463-1.0673 1.3108-1.6971 1.9954-0.4693 0.5098-1.2632 0.5428-1.7731 0.0736-0.5099-0.4693-0.5428-1.2632-0.0736-1.7731 6.4808-7.0449 4.6949-11.45 0.681-15.142-1.6193-1.4897-3.595-2.8978-5.57-4.3051-3.5656-2.541-7.131-5.0826-9.0016-8.3083-1.5834 0.0265-3.2155-0.0098-4.8981-0.1062-0.6916-0.038-1.2216-0.6297-1.1837-1.3213 0.038-0.6917 0.6297-1.2217 1.3213-1.1837 1.7139 0.0982 3.3706 0.132 4.9714 0.0982 0.3003-0.128 0.6248-0.1298 0.9121-0.0273 3.9947-0.152 7.6369-0.745 10.961-1.8519 4.6493-1.5481 8.7028-4.1119 12.261-7.8887-0.4892-2.4277-0.7776-5.0116-0.8861-7.6845-0.3344-8.2304 1.0219-17.338 3.4067-25.25 0.4686-1.5548 0.8457-2.86 1.234-4.2052 1.807-6.2584 3.8504-13.336 6.5407-18.13 1.1569-2.0616 2.4641-3.5484 3.5738-4.6209-1.9351-3.5132-4.3297-6.7354-7.1457-9.6906-2.9353-3.0799-5.0605-4.9193-8.874-7.4523-0.5776-0.3824-0.736-1.161-0.3536-1.7386 0.3825-0.5776 1.1611-0.7361 1.7387-0.3536 3.9678 2.6354 6.2374 4.5951 9.3063 7.8155 1.353 1.4196 2.6137 2.8983 3.7786 4.4386 4.4085-1.6727 8.3029-0.3083 10.258 3.8942 1.2348 2.6553 0.6758 7.1262 1.7306 10.965 0.0624 0.2272 0.1524 0.5532 0.4245 1.5355 1.1725 4.2309 2.6285 8.7175 4.1778 12.862 1.4667 3.9233 2.6388 6.8457 4.1161 9.6547 0.3227 0.6131 0.0875 1.3719-0.5256 1.6947-0.6131 0.3227-1.3719 0.0875-1.6946-0.5256-1.5183-2.8871-2.7346-5.9129-4.2437-9.9495-1.5787-4.2226-3.0586-8.7812-4.2466-13.068l-0.4245-1.5452c-1.0208-3.7149-0.4306-8.0724-1.5931-10.572-1.2215-2.6262-3.8265-3.4585-6.4368-2.7873 0.4106 0.6095 0.8071 1.2286 1.1891 1.8564 2.4223 0.0065 3.3775 0.2561 3.3884 1.5307 0.0066 0.778-0.5266 1.2294-1.3755 1.9478-1.0953 0.9267-3.0133 2.5499-4.5771 5.3368-2.5608 4.5636-4.5584 11.482-6.3247 17.6-0.457 1.5826-0.8997 3.1154-1.234 4.2248-2.3142 7.6774-3.6312 16.492-3.3084 24.434 0.1094 2.6955 0.4079 5.2854 0.9189 7.6892 0.0475 0.1222 0.075 0.2511 0.0827 0.3806 0.7278 3.251 1.8547 6.1467 3.4449 8.4796 0.2211-0.3276 0.4976-0.7821 0.82-1.3115 1.2478-2.049 3.0863-5.0673 6.2776-7.7385 5.5459-4.6422 11.571-10.335 15.381-15.224 2.7439-3.5215 4.3166-6.4872 3.5772-8.0149-0.301-0.6238-0.0392-1.3739 0.5845-1.6749 0.6238-0.301 1.3739-0.0392 1.6749 0.5846 1.2292 2.5392-0.5443 6.3895-3.8619 10.648-3.9374 5.0535-10.096 10.879-15.744 15.607-2.8782 2.4091-4.5873 5.2152-5.7473 7.1198-0.7212 1.184-1.2589 2.0665-1.8845 2.5321-0.9912 0.7372-1.8443 0.6656-2.6923-0.4741-1.6551-2.2241-2.8898-4.9291-3.7566-7.9565-3.5765 3.4686-7.6061 5.884-12.168 7.403-3.0707 1.0224-6.3732 1.6347-9.934 1.8874 1.7672 2.2919 4.6429 4.3423 7.5192 6.3921 2.0454 1.4577 4.0913 2.9158 5.8155 4.502 4.1787 3.8441 6.4752 8.2605 2.667 14.53 0.0612 0.0783 0.1241 0.1604 0.19 0.2479l-0.0023 0.0018 0.0023 3e-3c0.7512 0.9977 2.3913 3.176 6.3035 1.7749 2.9485-1.0558 2.3954-4.0632 2.0171-6.12-0.2001-1.0887-0.3662-1.9917-0.1403-2.7178 0.3511-1.1274 1.1214-1.593 2.6414-1.12 0.5045 0.157 0.9663 0.3446 1.3865 0.5585 2.3858 1.2147 3.5704 3.2589 3.9807 5.5537 0.3835 2.1451 0.0632 4.5039-0.5735 6.55-0.292 0.9375-0.6493 1.8109-1.0344 2.5674-0.08 0.157-0.229 0.3855-0.439 0.6487-0.7838 0.9834-2.773 2.8936-5.8389 3.8837-3.0288 0.9784-7.1121 1.0827-12.108-1.4615-1.4728-0.75-3.0309-1.7355-4.6696-3.0026-1.9691 1.3184-4.2006 2.0142-6.6382 2.22-3.2108 0.2711-6.7669-0.3199-10.538-1.4496-0.0248-0.0075-0.0496-0.016-0.0736-0.0248-0.1729 0.416-0.5644 0.7254-1.044 0.7689-0.5724 0.0525-1.2637 0.1493-1.9689 0.2479-2.0182 0.2823-4.1493 0.5801-5.981 0.1247-0.9782-0.2431-1.8313-0.7669-2.4934-1.4049-0.3418-0.3293-0.6362-0.6948-0.8752-1.0725-0.2661 0.1724-0.5974 0.2449-0.9325 0.1766-2.0552-0.4193-3.5278-1.5888-4.3893-3.0186-0.5375-0.892-0.8354-1.8907-0.8877-2.8769-0.0531-1.007 0.1512-2.0037 0.6192-2.8693 0.463-0.856 1.1726-1.5771 2.133-2.0492-2.3071-2.8179-4.4253-5.7833-4.7152-9.2212-0.183-2.1686-0.2672-4.4485-0.0385-6.8052 0.1816-1.8729 0.5607-3.7729 1.2427-5.6691-3.1441-0.4197-6.008-1.2154-8.6032-2.2938-6.3517-2.6394-11.076-6.964-14.369-11.604-1.6561-2.3334-3.1432-5.8454-4.6559-9.4184-0.497-1.1741-0.9975-2.3559-1.53-3.5517-1.1133-2.5006-2.068-4.93-2.6689-7.376-0.6167-2.5091-0.864-5.0254-0.539-7.632 0.3705-2.9721 1.7011-4.4073 3.1178-5.9356 0.8342-0.9 1.7051-1.8396 2.3193-3.2037 0.2848-0.6319 1.0283-0.9135 1.6602-0.6287 0.632 0.2848 0.9136 1.0283 0.6288 1.6603-0.781 1.7342-1.7975 2.8309-2.7713 3.8815-1.129 1.2181-2.1894 2.3619-2.4597 4.5306-0.2854 2.2883-0.0656 4.5078 0.4801 6.7284 0.5612 2.2837 1.4647 4.5798 2.5217 6.9537 0.5078 1.1402 1.0303 2.3743 1.5496 3.6008 1.4555 3.4382 2.8864 6.8175 4.3908 8.9369 3.0505 4.298 7.4207 8.3017 13.288 10.74 4.8535 2.0167 10.747 2.9672 17.789 2.1372 0.6888-0.0786 1.3114 0.4163 1.39 1.1051 0.0785 0.6888-0.4164 1.3113-1.1052 1.3899-2.7762 0.3272-5.3901 0.3921-7.846 0.2344-0.7535 1.8884-1.1541 3.7842-1.335 5.6502-0.2085 2.1487-0.1258 4.2966 0.0485 6.3632 0.2709 3.2113 2.8253 6.2627 5.2818 9.197 1.1258 1.345 2.2327 2.6672 3.1546 4.0438 0.2456-0.0881 0.5047-0.1663 0.7776-0.2344-0.4069-0.6475-0.7701-1.3275-1.0873-2.0434-0.3192-0.7198-0.5901-1.4742-0.8109-2.2639-1.3505-0.8162-2.6239-1.9558-3.7215-3.2826-1.2032-1.4546-2.2115-3.1526-2.8927-4.909-0.2495-0.6455 0.0715-1.3713 0.717-1.6208s1.3714 0.0714 1.6209 0.7169c0.5797 1.4949 1.4476 2.952 2.4898 4.2118 0.3661 0.4427 0.7527 0.8583 1.1531 1.2408-0.1793-2.2937-0.0041-4.839 0.5715-7.6687 0.1383-0.6781 0.8004-1.1156 1.4785-0.9773s1.1157 0.8003 0.9774 1.4785c-1.0128 4.979-0.6755 8.9243 0.7155 12.062 1.3748 3.1016 3.8087 5.4561 7.003 7.2724 0.602 0.3419 0.8132 1.1073 0.4714 1.7093s-1.1072 0.8132-1.7093 0.4714c-2.0448-1.1629-3.8225-2.5301-5.2737-4.1459-0.3702 0.0371-0.709 0.094-1.0184 0.1667-0.973 0.229-1.6333 0.6098-2.0204 1.0645-0.3249 0.3815-0.458 0.8369-0.4217 1.2965 8e-3 0.1035 0.0246 0.2074 0.0487 0.3101 0.091 0.3873 0.3673 0.8396 0.7765 1.234 0.3707 0.3571 0.8358 0.6474 1.3539 0.7761 1.3657 0.3395 3.2517 0.0757 5.0378-0.1739 0.6922-0.0966 1.3703-0.1916 2.0869-0.2576 0.1896-0.0171 0.3727 0.0086 0.5406 0.0697 0.2416-0.5897 0.8964-0.9112 1.5201-0.7253 3.4865 1.0445 6.7388 1.5939 9.6141 1.3512 2.751-0.2324 5.1676-1.2037 7.1235-3.1901 0.4855-0.4936 1.2794-0.5002 1.7731-0.0148 0.4936 0.4855 0.5002 1.2795 0.0148 1.7731l-0.0768 0.0772zm-32.331-1.301c-0.0186-1.0076 0.3117-1.9983 1.0334-2.8459 0.0984-0.1155 0.2041-0.2281 0.3167-0.337-0.6779-0.9938-1.5134-2.023-2.3856-3.0702-0.7763 0.197-1.3122 0.6429-1.6157 1.2039-0.2466 0.4562-0.3537 0.9966-0.3243 1.553 0.0304 0.577 0.2099 1.1696 0.5341 1.7078 0.4861 0.807 1.3036 1.4808 2.4414 1.7884zm59.965-103.35c-0.0046-0.1839-0.0317-0.2124-0.0852-0.1516l0.0852 0.1516zm-21.693-19.759c-0.1925 0.4037-0.5958 0.6908-1.0738 0.7132-0.6916 0.0325-1.279-0.5018-1.3115-1.1935-0.0205-0.4124-0.1618-0.8433-0.404-1.2885-0.2751-0.506-0.6808-1.0287-1.191-1.5638-0.4774-0.5019-0.4577-1.2959 0.0442-1.7733 0.3776-0.3593 0.9208-0.4366 1.3699-0.2393l6e-4 -0.0013c1.4492 0.6419 2.6681 1.4721 3.6165 2.5203 0.972 1.0738 1.6426 2.3552 1.9684 3.8716 0.1437 0.6781-0.2894 1.3447-0.9675 1.4883s-1.3447-0.2894-1.4883-0.9675c-0.1226-0.5707-0.3117-1.0914-0.5635-1.5662z"/>
</svg>
